<svg width="85" height="31" viewBox="0 0 85 31" fill="none" xmlns="http://www.w3.org/2000/svg">
<path d="M38.6427 14.6573C41.3291 13.7706 41.8166 11.5292 41.8101 9.70268C41.8049 6.91422 39.8245 4.5018 33.9617 4.5018L23.0195 4.5V25.4568H33.9336C39.8311 25.4568 42.0012 22.4471 42.0012 19.4324C42.0012 15.7819 38.6427 14.6573 38.6427 14.6573ZM28.2124 9.05929H35.5794L35.6061 9.06468C36.4377 9.21111 37.0431 9.91398 37.0431 10.7386C37.0431 11.5823 36.3944 12.3766 35.5372 12.4929L28.2174 12.5039L28.2124 9.05929ZM35.225 20.5728H28.2124V17.0641H35.3968L35.4137 17.0659C36.3075 17.1684 36.9845 17.9069 36.9845 18.7846C36.9845 19.741 36.1832 20.5581 35.225 20.5728Z" fill="#8491A0"/>
<path d="M66.5039 4.50293H84.995L84.9848 9.07692H71.6416L71.6544 12.4548H83.6837V17.0524H71.6544V20.7076H84.9994L84.9968 25.5003H66.5039V4.50293Z" fill="#8491A0"/>
<path d="M55.7485 4.53027H44.5664V25.4938H49.7013V17.0121C49.7013 17.0121 55.3554 17.0057 55.3564 17.0057C56.9759 17.0304 58.2354 18.3492 58.2354 19.9754V25.4755L63.2616 25.4737L63.2515 18.7077C63.2515 15.5735 60.2056 14.6474 60.2056 14.6474C60.2056 14.6474 63.3197 13.7211 63.3197 10.0157C63.3197 5.48204 59.4002 4.53027 55.7485 4.53027ZM58.5513 11.0343C58.4591 11.7234 57.7659 12.4711 56.9004 12.4711L49.6837 12.4739V9.11702H56.904C57.7659 9.11702 58.4418 9.74847 58.5513 10.5769V11.0343Z" fill="#8491A0"/>
<path d="M19.6896 20.428C19.6157 20.4299 12.6706 20.5634 10.273 20.3309C6.41091 19.9549 5.0433 17.1115 5.0433 14.7906C5.0433 11.8969 7.0278 9.76738 10.1022 9.36749C11.5647 9.1771 19.5627 9.26682 19.6472 9.26764L19.8154 9.2696L19.8324 4.50244L19.6625 4.50342L10.6104 4.51993C9.60272 4.58121 7.93192 4.68188 6.22101 5.3774C4.57751 6.12586 3.14709 7.27553 2.07904 8.70596C0.719648 10.527 0 12.6877 0 14.9543C0 15.6673 0.0567228 16.3748 0.172636 17.0538C0.824052 20.2322 2.92019 22.8623 5.92588 24.2772C6.94082 24.721 8.50606 25.2536 11.6628 25.4293C11.6693 25.4293 13.3634 25.4649 13.3634 25.4649L19.674 25.4713H19.8407L19.8585 20.426L19.6896 20.428Z" fill="#8491A0"/>
</svg>
