<svg width="85" height="31" viewBox="0 0 85 31" fill="none" xmlns="http://www.w3.org/2000/svg">
<path d="M55.7755 1.5H29.3338C29.2554 1.5 29.1796 1.52756 29.1195 1.57787C29.0594 1.62817 29.019 1.698 29.0052 1.77514C28.9914 1.85227 29.0052 1.93179 29.0442 1.99976C29.0832 2.06774 29.1448 2.11984 29.2183 2.14694L53.1344 9.97706C53.1618 9.98601 53.1914 9.98507 53.2181 9.97439C53.2449 9.96372 53.267 9.94399 53.2806 9.91866L56.8493 3.29879C56.9495 3.11296 56.9997 2.9043 56.9951 2.69323C56.9905 2.48216 56.9312 2.27591 56.823 2.09462C56.7148 1.91335 56.5613 1.76325 56.3778 1.65902C56.1942 1.5548 55.9866 1.5 55.7755 1.5Z" fill="#8491A0"/>
<path d="M29.0059 29.1787C29.0059 29.2506 29.0299 29.3204 29.074 29.3772C29.1182 29.4339 29.1801 29.4743 29.2498 29.4919C29.3195 29.5095 29.3931 29.5034 29.459 29.4744C29.5248 29.4455 29.5791 29.3954 29.6133 29.3321L34.2136 20.81C34.3181 20.6164 34.4731 20.4546 34.6621 20.3419C34.851 20.2292 35.067 20.1696 35.2871 20.1696H47.024C47.2441 20.1696 47.4602 20.1101 47.6492 19.9972C47.8383 19.8844 47.9932 19.7225 48.0977 19.5287L51.6047 13.026C51.6126 13.0112 51.6166 12.9946 51.6163 12.9778C51.6159 12.961 51.6112 12.9446 51.6026 12.9301C51.594 12.9157 51.5818 12.9038 51.5672 12.8955C51.5526 12.8872 51.536 12.8828 51.5192 12.8828H30.2257C29.9022 12.8828 29.5919 13.0114 29.3632 13.2401C29.1344 13.4689 29.0059 13.7792 29.0059 14.1027V29.1787Z" fill="#8491A0"/>
</svg>
