<svg width="85" height="31" viewBox="0 0 85 31" fill="none" xmlns="http://www.w3.org/2000/svg">
<g clip-path="url(#clip0_1_211)">
<path d="M26.5125 14.5984C25.1276 18.8121 21.7406 21.1866 17.1606 21.1866C11.4645 21.1866 7 16.6672 7 10.8819C7 5.1741 11.4645 0.50028 16.9681 0.50028C22.0865 0.50028 27.0132 4.71458 26.9747 11.7246H10.31C10.7331 15.8242 13.8891 18.2376 17.1606 18.2376C19.9701 18.2376 21.971 16.8968 23.0491 14.5984H26.5125ZM23.3571 8.81336C22.5487 5.59503 19.8547 3.45012 16.9681 3.45012C14.2359 3.45012 11.3493 5.4426 10.5027 8.81336H23.3571ZM38.4818 21.1869C35.6338 21.1869 33.1704 19.6548 31.7467 17.7395V29.5H28.4752V0.998399H31.6312V4.13926C33.017 2.14791 35.5565 0.5 38.4818 0.5C44.1773 0.5 48.3727 5.1355 48.3727 10.8056C48.3727 16.5523 44.1773 21.1869 38.4818 21.1869ZM38.4818 3.48872C34.8254 3.48872 31.7467 6.78341 31.7467 10.8056C31.7467 14.8658 34.8254 18.199 38.4818 18.199C42.1762 18.199 45.1012 14.8658 45.1012 10.8056C45.1012 6.78341 42.1762 3.48872 38.4818 3.48872ZM49.7967 0.998399H53.0684V20.7274H49.7967V0.998399ZM54.529 10.8937C54.529 5.13662 59.2236 0.505873 65.1675 0.505873C71.112 0.505873 75.8072 5.13662 75.8072 10.8937C75.8072 16.6507 71.0687 21.1973 65.1675 21.1973C59.2672 21.1973 54.529 16.6507 54.529 10.8937ZM66.0656 3.64898C60.6502 3.17771 57.6381 7.28153 57.6381 12.0627C57.6381 16.8428 61.5968 20.7196 66.4778 20.7196C68.3051 20.7229 70.0894 20.1668 71.5885 19.1268L70.3629 16.0214C71.629 14.7086 72.3607 12.8937 72.3607 10.8897C72.3607 6.92717 69.5812 3.97817 66.0656 3.64898Z" fill="#8491A0"/>
<path d="M62.2136 12.8765L71.8648 20.6926H77L67.5978 12.8765" fill="#8491A0"/>
</g>
<defs>
<clipPath id="clip0_1_211">
<rect width="85" height="30" fill="white" transform="translate(0 0.5)"/>
</clipPath>
</defs>
</svg>
